<svg xmlns="http://www.w3.org/2000/svg" xmlns:xlink="http://www.w3.org/1999/xlink" viewBox="0 0 1920 1080"><defs><style>.cls-1,.cls-2{fill:none;}.cls-2{stroke:#fff;stroke-miterlimit:10;}.cls-3{opacity:0.15;fill:url(#New_Pattern);}</style><pattern id="New_Pattern" data-name="New Pattern" width="462" height="600" patternTransform="translate(822.5 434.5) scale(0.5)" patternUnits="userSpaceOnUse" viewBox="0 0 462 600"><rect class="cls-1" width="462" height="600"/><polygon class="cls-2" points="202.01 650.25 144.28 550.25 28.81 550.25 144.28 750.25 144.28 750.25 259.75 750.25 202.01 650.25"/><polygon class="cls-2" points="432.9 650.25 375.17 550.25 375.17 550.25 375.17 550.25 259.7 750.25 375.17 750.25 375.17 750.25 490.64 750.25 432.9 650.25"/><polygon class="cls-2" points="-29.1 650.25 -86.83 550.25 -86.83 550.25 -86.83 550.25 -202.3 750.25 -86.83 750.25 -86.83 750.25 28.64 750.25 -29.1 650.25"/><polygon class="cls-2" points="606.28 350.25 490.81 150.25 433.07 250.25 490.81 350.25 606.28 550.25 664.01 450.25 606.28 350.25"/><polygon class="cls-2" points="548.54 50.25 433.07 50.25 490.81 150.25 548.54 50.25"/><polygon class="cls-2" points="317.38 250.25 201.91 250.25 144.17 350.25 201.91 450.25 317.38 450.25 375.11 350.25 317.38 250.25"/><polygon class="cls-2" points="490.64 350.25 375.17 350.25 317.43 450.25 375.17 550.25 490.64 350.25"/><polygon class="cls-2" points="144.28 350.25 28.81 150.25 -28.93 250.25 28.81 350.25 144.28 550.25 202.01 450.25 144.28 350.25"/><polygon class="cls-2" points="259.64 550.25 375.11 550.25 317.38 450.25 259.64 550.25"/><polygon class="cls-2" points="317.38 450.25 201.91 450.25 259.64 550.25 317.38 450.25"/><polygon class="cls-2" points="201.91 250.25 86.44 250.25 144.17 350.25 201.91 250.25"/><polygon class="cls-2" points="86.54 50.25 28.81 150.25 86.54 250.25 202.01 250.25 86.54 50.25"/><polygon class="cls-2" points="259.75 150.25 144.28 150.25 202.01 250.25 317.48 250.25 259.75 150.25"/><polygon class="cls-2" points="201.96 450.25 144.23 550.25 201.96 650.25 317.43 650.25 201.96 450.25"/><polygon class="cls-2" points="490.64 150.25 375.17 150.25 432.9 250.25 490.64 150.25"/><polygon class="cls-2" points="202.01 50.25 144.28 -49.75 28.81 -49.75 144.28 150.25 144.28 150.25 259.75 150.25 202.01 50.25"/><polygon class="cls-2" points="86.54 50.25 -28.93 50.25 28.81 150.25 86.54 50.25"/><polygon class="cls-2" points="28.7 550.25 144.17 550.25 86.44 450.25 28.7 550.25"/><polygon class="cls-2" points="433.13 450.25 375.4 550.25 433.13 650.25 548.6 650.25 433.13 450.25"/><polygon class="cls-2" points="259.75 150.25 375.17 150.25 490.64 350.25 375.17 350.25 259.75 150.25"/><polygon class="cls-2" points="432.9 50.25 375.17 -49.75 375.17 -49.75 375.17 -49.75 259.7 150.25 375.17 150.25 375.17 150.25 490.64 150.25 432.9 50.25"/><polygon class="cls-2" points="28.64 350.25 -86.83 350.25 -144.57 450.25 -86.83 550.25 28.64 350.25"/><polygon class="cls-2" points="28.64 150.25 -86.83 150.25 -29.1 250.25 28.64 150.25"/><polygon class="cls-2" points="-28.87 450.25 -86.6 550.25 -28.87 650.25 86.6 650.25 -28.87 450.25"/><polygon class="cls-2" points="-202.25 150.25 -86.83 150.25 28.64 350.25 -86.83 350.25 -202.25 150.25"/><polygon class="cls-2" points="-29.1 50.25 -86.83 -49.75 -86.83 -49.75 -86.83 -49.75 -202.3 150.25 -86.83 150.25 -86.83 150.25 28.64 150.25 -29.1 50.25"/><polygon class="cls-2" points="201.96 -149.75 144.23 -49.75 201.96 50.25 317.43 50.25 201.96 -149.75"/><polygon class="cls-2" points="433.13 -149.75 375.4 -49.75 433.13 50.25 548.6 50.25 433.13 -149.75"/><polygon class="cls-2" points="-28.87 -149.75 -86.6 -49.75 -28.87 50.25 86.6 50.25 -28.87 -149.75"/></pattern></defs><title>pattern</title><g id="Layer_2" data-name="Layer 2"><g id="Background"><rect id="Black" width="1920" height="1080"/><rect id="Swatch" class="cls-3" width="1920" height="1080"/></g></g></svg>